<?xml version="1.0" encoding="utf-8"?>
<!-- Generator: Adobe Illustrator 25.2.0, SVG Export Plug-In . SVG Version: 6.00 Build 0)  -->
<svg version="1.1" id="Layer_1" xmlns="http://www.w3.org/2000/svg" xmlns:xlink="http://www.w3.org/1999/xlink" x="0px" y="0px"
	 viewBox="0 0 496 154" style="enable-background:new 0 0 496 154;" xml:space="preserve">
<path d="M94.6,147.7c4.7-3.9,6.6-11.9,6.6-20v-14c0-4.4-0.1-8.8-0.8-12.1c-0.7-3.3-2.2-5.6-3.7-7.8c1.5-1.7,2.9-3.5,3.6-6
	c0.7-2.6,0.8-6,0.8-9.4V67.9c0-5.6,0.1-11.4-1.9-16.1c-2-4.7-5.4-8.2-10-10.3c-4.6-2.1-10.5-2.1-16.2-2.1H40.9v111.7h31.9
	C81.3,151.1,89.9,151.6,94.6,147.7L94.6,147.7z M61.8,59.9h8c3.1,0,6.2,0.5,7.7,1.8c1.6,1.3,1.7,3.7,1.7,6.2v9c0,2.5-1,4.9-2.6,6
	c-1.6,1.2-4.2,0.9-6.9,0.9h-8V59.9L61.8,59.9z M61.8,105.2h8c3.1,0,6.2,0.5,7.7,1.8c1.6,1.3,1.7,3.7,1.7,6.2v9c0,2.5-1,4.9-2.6,6
	c-1.6,1.2-4.2,0.9-6.9,0.9h-8V105.2L61.8,105.2z M156.5,151.1H178v-37.4c0-4.4-0.1-8.8-0.8-12.1c-0.7-3.3-2.2-5.6-3.7-7.8
	c1.5-1.7,2.9-3.5,3.6-6c0.7-2.6,0.8-6,0.8-9.4V67.9c0-5.6,0.1-11.4-1.9-16.1c-2-4.7-5.4-8.2-10-10.3c-4.6-2.1-10.5-2.1-16.2-2.1
	h-32.2v111.7h21l-0.2-45.5l18,0L156.5,151.1L156.5,151.1z M154.3,61.7c1.6,1.3,1.7,3.7,1.7,6.2v9c0,2.5-1,4.9-2.6,6
	c-1.6,1.2-4.2,0.9-6.9,0.9h-8V59.9h8C149.7,59.9,152.7,60.4,154.3,61.7L154.3,61.7z M213.9,38.5c0-3.5-0.6-7.3,1.3-10.1
	c1.8-2.8,5.1-4.5,8.3-4.5c3.2,0,6.5,1.7,8.4,4.5c1.9,2.8,1.4,6.6,1.4,10.1v45.9h-19.4V38.5L213.9,38.5z M233.3,151.1l19.1,0V34.8
	c0-6.7,0.6-13.8-1.5-19.1c-2.1-5.4-5.7-9-10.4-11c-4.7-2-10.5-2.5-16.2-2.6c-5.7-0.1-11.2,0-16.2,1.9c-5,1.9-9.3,5.6-11.9,10.9
	c-2.5,5.3-1.8,12-1.8,18.4v117.8h19.4v-47.3h19.4V151.1L233.3,151.1z M274,139.1c2.6,5.3,7,9,11.9,10.9s10.5,2.1,16.2,2
	c5.7-0.1,11.6-0.5,16.4-2.8s8.5-6.5,10.6-11.9s1.2-11.9,1.2-18.1V39h-18.7l-0.5,76.5c0,3.5,0.5,7.3-1.4,10.1
	c-1.9,2.8-5.1,4.5-8.4,4.5c-3.2,0-6.5-1.7-8.4-4.4c-1.9-2.8-1.4-6.6-1.4-10.1V39h-19.5l-0.2,81.5C271.7,127,271.4,133.8,274,139.1
	L274,139.1z M346.9,69.4v81.7h19.4l-0.1-76.6c0-3.5-0.5-7.3,1.4-10.1c1.9-2.8,5.1-4.4,8.4-4.4c3.2,0,6.5,1.7,8.3,4.5
	c1.9,2.8,1.4,6.6,1.4,10.1l0,76.6h18.9l0.2-80.2c0-6.3,0.9-12.7-1.2-18.1s-5.8-9.6-10.6-11.9c-4.8-2.3-10.7-2.7-16.4-2.8
	c-5.7-0.1-11.3,0-16.1,2c-4.9,1.9-9,5.7-11.5,10.9C346.7,56.3,346.9,62.9,346.9,69.4L346.9,69.4z M433.2,62.8h3v-7.3h4.5
	c0.3,0,0.6,0,1,0.1c0.4,0.1,0.8,0.2,1.1,0.5c0.6,0.6,0.7,1.5,0.7,2.2l0.1,2.1c0,0.8,0.1,1.6,0.5,2.4h3.3v-0.5
	c-0.2-0.1-0.4-0.2-0.5-0.6c-0.1-0.3-0.2-0.9-0.2-1.5l-0.1-2.5c0-0.5,0-0.9-0.2-1.5c-0.2-0.5-0.5-1.1-0.9-1.5s-0.7-0.6-1.1-0.6
	c0.7-0.2,1.3-0.7,1.8-1.5c0.5-0.7,0.7-1.7,0.7-2.7c0-1-0.3-2.1-0.9-2.9c-0.6-0.8-1.3-1.3-2.2-1.7c-0.9-0.3-1.9-0.3-2.9-0.3h-7.7
	L433.2,62.8L433.2,62.8z M440.5,47.6c0.7,0,1.6,0,2.4,0.5c0.7,0.5,1.1,1.4,1,2.2c0,0.4,0,0.8-0.2,1.2c-0.1,0.4-0.4,0.7-0.8,1
	c-0.7,0.5-1.7,0.6-2.5,0.6h-4.2v-5.4L440.5,47.6L440.5,47.6z M440.1,39c-2.6,0-5.2,0.7-7.5,2c-2.3,1.3-4.2,3.2-5.5,5.5
	c-1.3,2.3-2,4.9-2,7.5c0,2.6,0.7,5.2,2,7.5c1.3,2.3,3.2,4.2,5.5,5.5c2.3,1.3,4.9,2,7.5,2c2.6,0,5.2-0.7,7.5-2
	c2.3-1.3,4.2-3.2,5.5-5.5c1.3-2.3,2-4.9,2-7.5c0-2.6-0.7-5.2-2-7.5c-1.3-2.3-3.2-4.2-5.5-5.5C445.3,39.7,442.8,39,440.1,39z
	 M453,54.1c0,2.2-0.6,4.4-1.7,6.3c-1.1,1.9-2.7,3.5-4.7,4.6c-1.9,1.1-4.1,1.7-6.4,1.7c-2.2,0-4.4-0.6-6.4-1.7
	c-1.9-1.1-3.5-2.7-4.7-4.6c-1.1-1.9-1.7-4.1-1.7-6.3c0-2.2,0.6-4.4,1.7-6.3c1.1-1.9,2.7-3.5,4.7-4.6c1.9-1.1,4.1-1.7,6.4-1.7
	c2.2,0,4.4,0.6,6.4,1.7c1.9,1.1,3.5,2.7,4.7,4.6C452.4,49.7,453,51.8,453,54.1z"/>
</svg>
